<svg width="644" height="281" viewBox="0 0 644 281" fill="none" xmlns="http://www.w3.org/2000/svg">
<path d="M272.511 265.61L255.555 197.787C255.291 196.729 254.877 195.741 254.35 194.833C255.32 192.144 255.852 189.246 255.852 186.228V74.4255C255.852 60.4058 244.447 49 230.426 49H42.5637C28.5421 49 17.1369 60.4058 17.1369 74.4255V186.227C17.1369 189.245 17.6687 192.143 18.6403 194.832C18.1135 195.741 17.6972 196.727 17.4335 197.785L0.340038 266.157C-0.510603 269.561 0.254415 273.168 2.41421 275.933C4.57339 278.699 7.88661 280.315 11.3965 280.315H261.594C261.597 280.315 261.602 280.315 261.604 280.315C267.899 280.315 273 275.213 273 268.92C272.999 267.769 272.829 266.658 272.511 265.61ZM165.374 262.5C165.371 262.5 165.368 262.501 165.364 262.5H107.624C106.958 262.5 106.325 262.204 105.899 261.693C105.471 261.182 105.292 260.508 105.411 259.85L109.91 234.88C110.103 233.808 111.036 233.03 112.124 233.03H160.866C161.954 233.03 162.886 233.809 163.079 234.88L167.541 259.651C167.594 259.842 167.622 260.043 167.622 260.251C167.624 261.493 166.616 262.5 165.374 262.5ZM233.644 186.228C233.644 187.527 232.869 188.646 231.758 189.155H41.2304C40.1185 188.647 39.3423 187.527 39.3423 186.228V74.4255C39.3423 72.6504 40.7874 71.2066 42.5631 71.2066H230.426C232.2 71.2066 233.645 72.6498 233.645 74.4255V186.228H233.644Z" fill="black"/>
<rect x="173" y="5" width="113" height="105" fill="white"/>
<path d="M256.556 106.567C255.898 106.166 255.325 105.629 254.869 104.979C254.658 104.679 254.481 104.362 254.333 104.034H179.553V30.3265H281.056V78.4547C283.223 78.6504 285.041 80.0736 285.805 82.0225C286.481 81.652 287.234 81.4231 288.026 81.3532C288.561 81.3066 289.093 81.3399 289.609 81.4418V11.9644C289.609 8.03406 286.412 4.83646 282.482 4.83646H178.128C174.198 4.83646 171 8.03406 171 11.9644V105.46C171 109.39 174.198 112.587 178.128 112.587H255.906C255.3 111.358 255.156 109.971 255.513 108.636C255.719 107.868 256.075 107.167 256.556 106.567ZM273.229 16.8058C273.229 15.3523 274.407 14.1737 275.861 14.1737H278.493C279.946 14.1737 281.124 15.352 281.124 16.8058V19.7886C281.124 21.2421 279.946 22.4204 278.493 22.4204H275.861C274.407 22.4204 273.229 21.2421 273.229 19.7886V16.8058ZM260.991 16.8058C260.991 15.3523 262.17 14.1737 263.623 14.1737H266.255C267.709 14.1737 268.887 15.352 268.887 16.8058V19.7886C268.887 21.2421 267.709 22.4204 266.255 22.4204H263.623C262.17 22.4204 260.991 21.2421 260.991 19.7886V16.8058ZM248.753 16.8058C248.753 15.3523 249.932 14.1737 251.385 14.1737H254.017C255.47 14.1737 256.649 15.352 256.649 16.8058V19.7886C256.649 21.2421 255.47 22.4204 254.017 22.4204H251.385C249.932 22.4204 248.753 21.2421 248.753 19.7886V16.8058Z" fill="black"/>
<path d="M297.983 101.547L297.192 97.0621C297.085 96.4581 296.51 96.0547 295.905 96.1611L291.917 96.864C291.438 95.7405 290.827 94.688 290.101 93.7248L292.706 90.6194C292.895 90.3944 292.988 90.1025 292.962 89.8089C292.936 89.5152 292.795 89.2442 292.569 89.0546L289.081 86.1271C288.855 85.9378 288.563 85.8458 288.269 85.8715C287.976 85.8972 287.705 86.0385 287.515 86.2641L284.913 89.367C283.844 88.8227 282.701 88.4029 281.504 88.1259V84.0757C281.504 83.4624 281.006 82.9646 280.393 82.9646H275.839C275.225 82.9646 274.728 83.4624 274.728 84.0757V88.1259C273.53 88.4026 272.388 88.8227 271.319 89.367L268.716 86.2644C268.321 85.7944 267.621 85.7333 267.151 86.1274L263.662 89.0546C263.436 89.2442 263.295 89.5152 263.269 89.8089C263.244 90.1025 263.336 90.3947 263.525 90.6203L266.13 93.7251C265.406 94.688 264.793 95.7411 264.314 96.8643L260.326 96.1611C259.723 96.055 259.146 96.4581 259.039 97.0621L258.249 101.547C258.197 101.837 258.264 102.135 258.432 102.377C258.602 102.619 258.859 102.783 259.149 102.834L263.14 103.537C263.205 104.774 263.421 105.97 263.767 107.11L260.259 109.135C260.004 109.281 259.818 109.524 259.741 109.809C259.665 110.093 259.705 110.396 259.852 110.651L262.129 114.595C262.276 114.851 262.519 115.037 262.803 115.113C262.898 115.138 262.995 115.151 263.091 115.151C263.284 115.151 263.476 115.101 263.646 115.002L267.157 112.975C267.983 113.859 268.915 114.643 269.934 115.306L268.547 119.115C268.447 119.392 268.46 119.697 268.584 119.964C268.709 120.231 268.934 120.438 269.211 120.538L273.49 122.095C273.613 122.14 273.741 122.163 273.87 122.163C274.03 122.163 274.191 122.128 274.34 122.059C274.607 121.935 274.813 121.709 274.914 121.432L276.3 117.623C276.894 117.695 277.499 117.733 278.112 117.733C278.726 117.733 279.331 117.695 279.925 117.623L281.312 121.432C281.412 121.709 281.619 121.935 281.885 122.059C282.034 122.128 282.194 122.163 282.355 122.163C282.484 122.163 282.612 122.141 282.735 122.095L287.015 120.538C287.291 120.438 287.516 120.231 287.641 119.964C287.765 119.697 287.778 119.392 287.678 119.115L286.291 115.307C287.309 114.644 288.241 113.859 289.068 112.975L292.579 115.003C292.749 115.101 292.941 115.151 293.134 115.151C293.23 115.151 293.327 115.138 293.422 115.114C293.706 115.037 293.949 114.851 294.096 114.596L296.373 110.651C296.52 110.397 296.56 110.093 296.484 109.809C296.407 109.525 296.221 109.282 295.966 109.135L292.458 107.11C292.805 105.971 293.02 104.774 293.085 103.538L297.076 102.834C297.366 102.783 297.624 102.619 297.793 102.377C297.968 102.135 298.034 101.837 297.983 101.547ZM278.116 108.674C274.743 108.674 272.007 105.939 272.007 102.565C272.007 99.1909 274.743 96.4557 278.116 96.4557C281.49 96.4557 284.226 99.1909 284.226 102.565C284.226 105.939 281.49 108.674 278.116 108.674Z" fill="black"/>
<path d="M220.809 71.184C220.809 69.7468 219.967 68.4267 218.663 67.8213L206.73 62.2771L218.663 56.7323C219.967 56.1263 220.809 54.8065 220.809 53.3699V53.2734C220.809 52.0002 220.168 50.8313 219.096 50.1481C218.502 49.7692 217.811 49.5687 217.098 49.5687C216.56 49.5687 216.02 49.6869 215.537 49.9113L196.46 58.7825C195.157 59.3886 194.316 60.7084 194.316 62.1446V62.4099C194.316 63.8443 195.157 65.1632 196.461 65.7723L215.539 74.6444C216.032 74.8727 216.558 74.9886 217.1 74.9886C217.807 74.9886 218.496 74.7878 219.096 74.4067C220.169 73.7208 220.809 72.5528 220.809 71.2811L220.809 71.184Z" fill="black"/>
<path d="M239.631 40.5293C238.935 39.5767 237.816 39.0081 236.637 39.0081H236.542C234.923 39.0081 233.503 40.0439 233.01 41.5836L220.441 80.5282C220.083 81.6526 220.284 82.8911 220.979 83.8434C221.675 84.7955 222.795 85.3643 223.974 85.3643H224.069C225.688 85.3643 227.106 84.3282 227.599 82.7889L240.166 43.8473C240.528 42.7238 240.327 41.4835 239.631 40.5293Z" fill="black"/>
<path d="M264.149 58.7822L245.072 49.911C244.59 49.6872 244.052 49.569 243.514 49.569C242.801 49.569 242.109 49.7689 241.516 50.1472C240.442 50.8316 239.801 52.0002 239.801 53.2734V53.3699C239.801 54.8053 240.643 56.1254 241.947 56.7339L253.88 62.2774L241.947 67.8213C240.643 68.4267 239.801 69.7468 239.801 71.184V71.2811C239.801 72.5528 240.442 73.7205 241.516 74.407C242.113 74.7875 242.802 74.9886 243.51 74.9886C244.052 74.9886 244.577 74.8727 245.073 74.6435L264.151 65.7714C265.454 65.1638 266.295 63.8446 266.295 62.4102V62.1449C266.294 60.7084 265.452 59.3886 264.149 58.7822Z" fill="black"/>
<path d="M390.549 145H379.016L375.835 135.218H356.827L353.725 145H342.193L360.326 93.145C361.122 91.3423 361.996 90.0963 362.951 89.407C363.958 88.7177 365.178 88.3731 366.609 88.3731C368.041 88.3731 369.181 88.6912 370.029 89.3275C370.931 89.9637 371.726 91.2363 372.415 93.145L390.549 145ZM373.29 125.912L366.609 103.484L359.611 125.912H373.29ZM407.465 145L397.125 145.08V85.1918H407.465V145ZM428.513 145L418.174 145.08V85.1918H428.513V145ZM470.875 145H463.956L460.775 139.512L449.72 145.477C443.569 145.477 439.434 143.25 437.313 138.796C436.252 136.623 435.51 134.29 435.086 131.798C434.715 129.253 434.529 126.628 434.529 123.924C434.529 121.167 434.556 119.152 434.609 117.88C434.662 116.554 434.794 115.043 435.006 113.346C435.218 111.596 435.51 110.138 435.881 108.972C436.305 107.805 436.889 106.612 437.631 105.393C438.373 104.12 439.275 103.113 440.335 102.371C442.721 100.727 445.823 99.9053 449.64 99.9053H460.536L470.875 99.269V145ZM460.536 130.525V109.211H452.663C449.746 109.211 447.705 110.324 446.539 112.551C445.425 114.778 444.868 118.118 444.868 122.572C444.868 126.973 445.399 130.074 446.459 131.877C447.572 133.68 449.64 134.581 452.663 134.581L460.536 130.525ZM517.336 145H506.997V115.971C506.997 113.373 506.467 111.596 505.407 110.642C504.346 109.688 502.862 109.211 500.953 109.211L491.648 113.108V145H481.308V99.5871H489.023L491.409 104.995L504.134 99.1099C507.687 99.1099 510.762 100.435 513.36 103.087C516.011 105.685 517.336 109.502 517.336 114.539V145ZM383.311 173.304C386.598 176.538 388.242 181.31 388.242 187.62C388.242 193.929 386.598 198.728 383.311 202.015C380.077 205.25 375.49 206.867 369.552 206.867H358.656V225H347.601V168.373H369.552C375.49 168.373 380.077 170.017 383.311 173.304ZM377.187 187.62C377.187 181.363 374.457 178.235 368.995 178.235H358.656V196.925H368.995C371.646 196.925 373.661 196.209 375.04 194.778C376.471 193.346 377.187 190.96 377.187 187.62ZM420.845 179.746L417.982 189.926C417.186 189.608 416.285 189.449 415.277 189.449C412.626 189.449 409.366 190.589 405.495 192.869V225H395.156V179.587H402.87L405.256 183.564L416.232 179.03C416.762 178.977 417.478 178.951 418.379 178.951C419.281 178.951 420.102 179.216 420.845 179.746ZM452.311 204.481V200.345C452.311 196.421 451.728 193.426 450.562 191.358C449.448 189.29 447.089 188.256 443.483 188.256C437.651 188.256 434.735 192.18 434.735 200.027V204.163C434.735 212.593 437.651 216.808 443.483 216.808C447.248 216.808 449.713 215.403 450.88 212.593C451.834 210.366 452.311 207.662 452.311 204.481ZM462.651 202.095C462.651 211.904 460.795 218.478 457.083 221.819C453.955 224.682 449.422 226.113 443.483 226.113C435.901 226.113 430.785 223.887 428.134 219.433C425.642 215.35 424.396 209.571 424.396 202.095C424.396 195.096 425.642 189.608 428.134 185.632C430.891 181.178 435.901 178.951 443.165 178.951C450.482 178.951 455.546 180.913 458.356 184.836C461.219 188.707 462.651 194.46 462.651 202.095ZM481.259 181.257V226.67C481.259 229.904 480.225 232.688 478.157 235.021C476.142 237.354 473.146 238.52 469.17 238.52H463.284V229.772H467.261C469.7 229.772 470.92 228.526 470.92 226.034V181.257H481.259ZM476.169 162.249C478.661 162.249 480.278 162.647 481.02 163.442C481.762 164.184 482.134 165.802 482.134 168.294C482.134 170.733 481.736 172.35 480.941 173.145C480.198 173.887 478.581 174.258 476.089 174.258C473.65 174.258 472.033 173.861 471.238 173.065C470.495 172.27 470.124 170.653 470.124 168.214C470.124 165.775 470.495 164.184 471.238 163.442C472.033 162.647 473.677 162.249 476.169 162.249ZM526.862 204.719H500.377C500.377 208.855 501.014 211.877 502.286 213.786C503.612 215.695 506.236 216.649 510.16 216.649C512.705 216.649 514.587 215.854 515.807 214.263C517.026 212.619 517.636 211.055 517.636 209.571H526.941C526.941 215.244 525.404 219.406 522.328 222.057C519.306 224.708 515.277 226.034 510.239 226.034C505.255 226.034 501.385 225.318 498.628 223.887C492.954 220.97 490.118 213.229 490.118 200.663C490.118 193.187 491.735 187.726 494.969 184.28C498.204 180.78 503.135 179.03 509.762 179.03C521.268 179.03 527.021 185.419 527.021 198.198C527.021 199.576 526.968 201.75 526.862 204.719ZM500.616 197.641H517.636C517.636 194.142 516.973 191.596 515.648 190.006C514.322 188.415 512.281 187.62 509.524 187.62C506.82 187.62 504.646 188.442 503.002 190.085C501.411 191.676 500.616 194.195 500.616 197.641ZM559.617 208.378L569.002 208.298C568.949 208.722 568.896 209.491 568.843 210.605C568.79 211.718 568.737 212.487 568.684 212.911C568.684 213.282 568.631 213.892 568.525 214.74C568.419 215.589 568.286 216.225 568.127 216.649C568.021 217.02 567.862 217.524 567.65 218.16C566.696 220.917 564.097 223.091 559.856 224.682C557.152 225.636 554.315 226.113 551.346 226.113C548.43 226.113 545.779 225.636 543.393 224.682C541.007 223.727 539.124 222.508 537.746 221.023C534.618 217.736 533.053 211.586 533.053 202.572C533.053 193.505 534.618 187.328 537.746 184.041C539.124 182.556 541.007 181.337 543.393 180.382C545.779 179.428 548.43 178.951 551.346 178.951C557.072 178.951 561.42 180.382 564.389 183.246C567.358 186.109 568.843 190.085 568.843 195.175H559.458C559.458 192.842 558.875 191.119 557.708 190.006C556.542 188.839 554.368 188.256 551.187 188.256C548.058 188.256 545.964 189.237 544.904 191.199C543.896 193.161 543.393 196.103 543.393 200.027V204.163C543.393 210.472 544.612 214.343 547.051 215.774C548.165 216.464 549.623 216.808 551.425 216.808C553.228 216.808 554.686 216.649 555.8 216.331C556.966 215.96 557.788 215.35 558.265 214.502C558.795 213.653 559.14 212.832 559.299 212.036C559.458 211.188 559.564 209.968 559.617 208.378ZM597.041 225H590.599C586.676 225 583.68 223.834 581.612 221.501C579.597 219.168 578.59 216.384 578.59 213.15V189.29H574.216V181.416H578.59V172.509H588.929V181.416H596.246V189.29H588.929V212.513C588.929 215.005 590.122 216.251 592.508 216.251H597.041V225ZM636.773 212.434V213.627C636.455 217.604 634.758 220.599 631.683 222.614C628.66 224.629 624.869 225.636 620.31 225.636C613.576 225.636 608.857 224.417 606.153 221.978C603.661 219.751 602.415 216.464 602.415 212.116V211.161H611.8C611.8 213.6 612.436 215.271 613.708 216.172C614.981 217.073 617.181 217.524 620.31 217.524C624.551 217.524 626.672 215.986 626.672 212.911C626.672 210.366 625.93 208.669 624.445 207.821C623.756 207.397 622.881 207.079 621.821 206.867L613.788 205.515C606.789 204.401 603.29 200.027 603.29 192.392C603.29 188.15 604.827 184.863 607.903 182.53C611.031 180.144 614.981 178.951 619.753 178.951C630.622 178.951 636.057 183.643 636.057 193.028V194.062H627.07C626.964 191.57 626.301 189.873 625.081 188.972C623.862 188.071 622.139 187.62 619.912 187.62C617.738 187.62 616.094 188.071 614.981 188.972C613.867 189.82 613.311 190.775 613.311 191.835C613.311 194.857 614.53 196.581 616.969 197.005L626.593 198.754C633.379 200.027 636.773 204.587 636.773 212.434Z" fill="black"/>
</svg>
